<svg width="64" height="64" viewBox="0 0 64 64" fill="none" xmlns="http://www.w3.org/2000/svg">
<path d="M51.8997 27.4286C51.2676 25.6903 50.6355 24.1552 48.3329 23.9746C46.3915 23.794 46.1657 24.8551 46.0303 25.8032C45.9174 27.3157 45.2401 27.564 44.6983 27.6995C43.8631 27.9027 39.5061 28.9411 39.5061 28.9411L38.3096 29.2346L34.8782 30.0473L30.5664 31.0857C30.5664 31.0857 25.487 32.3048 24.5163 32.5305C23.8165 32.6886 22.8006 32.824 21.8525 30.9277C21.8299 30.8826 21.8073 30.86 21.7622 30.7923C21.3332 30.0021 20.7011 29.9796 20.2271 30.2053C20.1142 30.273 20.0239 30.3408 19.911 30.4536C19.8884 30.4762 19.8659 30.4988 19.8659 30.5214C19.437 30.9503 18.85 31.2663 18.1728 31.4244C16.4571 31.8307 14.7865 30.9954 14.4479 29.5732C14.1093 28.151 15.2154 26.6385 16.9311 26.2321C17.044 26.2095 17.1569 26.187 17.2698 26.1644C17.2698 26.1644 19.1661 25.8484 20.1368 25.9387C20.2948 25.9612 20.4528 26.0064 20.5883 26.0741C22.7555 27.2028 25.6225 26.8642 25.7805 26.0741C26.1417 24.3584 23.681 22.7556 23.3876 22.5976C23.0264 22.417 22.8232 22.1686 22.9812 21.83C23.8842 19.708 23.523 17.8342 22.8232 17.157C22.304 16.6603 19.5047 18.2406 18.5565 20.6561C18.4437 20.927 18.2631 21.1753 18.0147 21.3334C11.6034 25.8484 10.0458 33.2755 12.8902 39.5965C15.983 46.5044 40.3639 45.2854 45.9851 42.8473C52.2384 40.4769 53.3445 32.8917 51.8997 27.4286Z" fill="#60222B"/>
<path d="M30.4761 15.5542C29.9343 14.7415 24.4712 16.8635 24.8098 20.9496C25.1484 25.0356 31.1533 26.0741 31.6048 24.9905C32.3047 23.3651 30.1826 21.2656 29.9343 21.0624C29.5957 20.8141 29.4602 20.5206 29.686 20.2046C31.0179 18.2857 31.0179 16.3668 30.4761 15.5542Z" fill="#E6A73D"/>
<path d="M37.8582 15.1252C37.3616 14.2674 31.763 15.9831 31.8081 20.0917C31.8307 24.1778 37.7453 25.6677 38.2871 24.6293C39.1224 23.049 37.1584 20.8141 36.9101 20.5884C36.594 20.3175 36.4811 20.024 36.7295 19.7079C38.1968 17.9019 38.3549 15.9831 37.8582 15.1252Z" fill="#E6A73D"/>
<path d="M41.5379 17.7891C39.4158 17.631 38.6709 18.8952 38.558 19.5499C38.5354 20.6561 39.5513 21.5139 41.4702 21.5365C43.0955 21.5591 45.3305 20.2046 45.3305 19.6628C45.2176 18.9629 43.6599 17.9471 41.5379 17.7891Z" fill="#E6A73D"/>
<path d="M17.9019 14.0417C17.2698 13.0032 17.0441 12.6194 16.4346 11.581C16.4346 11.581 16.412 11.5584 16.412 11.5358C16.412 11.5133 16.4346 11.4907 16.4571 11.4907C16.57 11.4681 16.6603 11.4004 16.7055 11.3101C16.728 11.2424 16.728 11.1972 16.7055 11.1521C16.6829 11.1069 16.6377 11.0618 16.57 11.0618C16.5023 11.0618 16.4346 11.0618 16.3668 11.1069C16.0056 11.3101 15.6444 11.5358 15.2832 11.7616C15.2155 11.8067 15.1704 11.8519 15.1478 11.9196C15.1252 11.9873 15.1252 12.0325 15.1478 12.0776C15.1704 12.1228 15.2381 12.1454 15.3058 12.1679C15.3961 12.1679 15.4864 12.1228 15.5767 12.0551C15.6219 12.0325 15.6444 12.0325 15.667 12.0551C16.1637 12.8678 16.6603 13.6805 17.157 14.4932C17.157 14.4932 17.157 14.5157 17.1344 14.5383C17.0441 14.606 16.9312 14.6286 16.9086 14.7189C16.8861 14.7866 16.8861 14.8318 16.9312 14.8769C16.9538 14.9221 17.0215 14.9447 17.0667 14.9672C17.1344 14.9672 17.2021 14.9447 17.2698 14.8995C17.5633 14.6963 17.8568 14.5157 18.1728 14.3577C18.2406 14.3351 18.2857 14.29 18.3083 14.2223C18.3309 14.1545 18.3309 14.1094 18.3083 14.0642C18.2857 14.0191 18.2406 13.9739 18.1728 13.9739C18.0825 13.9514 17.9922 13.9965 17.9245 14.0642C17.9245 14.0417 17.9019 14.0417 17.9019 14.0417Z" fill="#5E222A"/>
<path d="M14.1544 12.5516C14.0867 12.5516 14.019 12.5742 13.9512 12.6194C13.8835 12.6645 13.8158 12.7097 13.7481 12.7548C13.6803 12.8 13.6352 12.8451 13.6126 12.9128C13.59 12.9806 13.6126 13.0257 13.6578 13.0934C14.0641 13.6804 14.493 14.2448 14.8994 14.8317C14.9445 14.8994 14.8768 14.9672 14.8091 14.9446C14.019 14.606 13.2063 14.2899 12.3484 13.9964C12.3033 13.9739 12.2356 13.9739 12.1904 13.9964C12.1227 14.019 12.0775 14.0416 12.0324 14.0867C11.9195 14.177 11.8066 14.2673 11.6938 14.3576C11.626 14.4028 11.5809 14.4705 11.5809 14.5382C11.5583 14.606 11.5809 14.6511 11.626 14.6963C12.3259 15.5315 13.0483 16.3442 13.7481 17.1795C13.7932 17.2247 13.8384 17.2472 13.9061 17.2472C13.9738 17.2472 14.019 17.2247 14.0867 17.1795C14.1544 17.1344 14.1996 17.0892 14.2673 17.0441C14.3124 16.9989 14.3576 16.9538 14.3802 16.886C14.3802 16.8183 14.3576 16.7732 14.335 16.728C13.8835 16.1862 13.4546 15.6218 13.0031 15.08C12.9579 15.0123 13.0257 14.922 13.0934 14.9672C13.9061 15.2606 14.7188 15.5767 15.4863 15.9379C15.5315 15.9605 15.5766 15.9605 15.6444 15.9605C15.6895 15.9605 15.7572 15.9379 15.8024 15.8927C15.9153 15.825 16.0056 15.7347 16.1184 15.667C16.1636 15.6218 16.2087 15.5767 16.2313 15.509C16.2539 15.4412 16.2313 15.3961 16.1862 15.3509C15.5766 14.4479 14.9445 13.5449 14.335 12.6419C14.2673 12.5968 14.2221 12.5516 14.1544 12.5516Z" fill="#5E222A"/>
<path d="M24.7423 11.3326C24.223 10.9488 23.6812 10.5876 23.1169 10.2264C23.0266 10.1813 23.004 10.0458 23.0491 9.95552C23.32 9.39114 23.6135 8.84934 23.9521 8.28497C23.9747 8.23982 23.9973 8.19467 23.9747 8.12694C23.9521 8.08179 23.9296 8.03664 23.8844 8.03664C23.8393 8.01407 23.7715 8.03664 23.7264 8.03664C23.6361 8.05922 23.5684 8.0818 23.4781 8.10437C23.3652 8.12695 23.2975 8.19467 23.2297 8.28497C22.9588 8.78162 22.7331 9.27827 22.5073 9.79749C22.4848 9.86522 22.3719 9.86522 22.3493 9.79749C22.2364 9.45887 22.1236 9.12024 22.0107 8.78162C21.9881 8.71389 21.9655 8.66874 21.8978 8.64617C21.8301 8.62359 21.7624 8.62359 21.6946 8.64617C21.6043 8.66874 21.514 8.71389 21.4237 8.73647C21.356 8.75904 21.2883 8.80419 21.2657 8.84934C21.2431 8.89449 21.2431 8.96222 21.2657 9.02994C21.6495 10.0458 22.0107 11.0843 22.3945 12.1001C22.417 12.1679 22.4396 12.213 22.5073 12.2356C22.5525 12.2582 22.6202 12.2582 22.6879 12.2356C22.7557 12.213 22.846 12.1904 22.9137 12.1453C22.9814 12.1227 23.0266 12.1001 23.0491 12.0324C23.0717 11.9873 23.0717 11.9195 23.0491 11.8518C22.9137 11.468 22.8008 11.1068 22.6654 10.7231C22.6428 10.6553 22.6654 10.5876 22.7557 10.6102C23.2523 10.9262 23.7264 11.2423 24.2005 11.5809C24.2908 11.6486 24.3811 11.6486 24.4714 11.6261C24.5391 11.6035 24.6068 11.5809 24.6745 11.5583C24.7197 11.5358 24.7648 11.5132 24.81 11.4906C24.8551 11.4455 24.8551 11.4003 24.8326 11.3552C24.81 11.4003 24.7874 11.3552 24.7423 11.3326Z" fill="#5E222A"/>
<path d="M21.4237 12.4388C20.8593 12.1228 20.2723 11.8519 19.6854 11.5584C19.5725 11.5132 19.5274 11.3778 19.5725 11.2649C19.7757 10.678 20.0014 10.091 20.2498 9.52665C20.2723 9.4815 20.2723 9.41377 20.2498 9.36862C20.2272 9.32347 20.2046 9.3009 20.1369 9.27832C20.0917 9.27832 20.024 9.27832 19.9789 9.3009C19.9111 9.32347 19.8208 9.36862 19.7531 9.3912C19.6402 9.43635 19.5725 9.50407 19.5274 9.61694C19.3242 10.1362 19.1436 10.678 18.9856 11.1972C18.963 11.2649 18.8501 11.2875 18.8275 11.2198C18.6695 10.9037 18.5115 10.5877 18.3535 10.2716C18.3309 10.2265 18.2857 10.1813 18.218 10.1587C18.1503 10.1362 18.0826 10.1587 18.0148 10.2039C17.9245 10.249 17.8342 10.2942 17.7665 10.3393C17.6988 10.3845 17.6536 10.4296 17.6085 10.4748C17.5859 10.5425 17.5859 10.5877 17.6085 10.6554C18.1051 11.6261 18.6018 12.5968 19.121 13.5676C19.1436 13.6127 19.1887 13.6579 19.2565 13.6804C19.3242 13.703 19.3693 13.6804 19.4371 13.6579C19.5048 13.6127 19.5951 13.5901 19.6628 13.545C19.7305 13.5224 19.7757 13.4773 19.7983 13.4095C19.8208 13.3644 19.8208 13.2967 19.7757 13.2289C19.5951 12.8677 19.4371 12.5065 19.2565 12.1453C19.2113 12.055 19.2565 11.9873 19.3016 12.0099C19.8434 12.2582 20.3852 12.5291 20.9044 12.8C20.9947 12.8452 21.085 12.8452 21.1979 12.8C21.2656 12.7774 21.3334 12.7323 21.4011 12.7097C21.4462 12.6871 21.4914 12.6646 21.514 12.6194C21.5365 12.5743 21.5365 12.5291 21.5365 12.484C21.514 12.5065 21.4688 12.4614 21.4237 12.4388Z" fill="#5E222A"/>
<path d="M44.1793 13.0258C43.7729 12.8226 43.344 12.642 42.9151 12.4614C42.8699 12.4388 42.8473 12.3937 42.8699 12.3485C43.0054 12.0325 43.1408 11.7164 43.2763 11.4004C43.2988 11.3552 43.344 11.3327 43.3891 11.3552C43.7955 11.5133 44.1793 11.6939 44.563 11.8745C44.6308 11.897 44.6985 11.9196 44.7436 11.897C44.8114 11.8745 44.8339 11.8519 44.8791 11.7842C44.9017 11.739 44.9017 11.6713 44.8791 11.6261C44.8565 11.581 44.7888 11.5358 44.7436 11.4907C44.3373 11.3101 43.9535 11.1295 43.5472 10.9489C43.502 10.9263 43.4794 10.8812 43.502 10.836C43.6375 10.4974 43.7729 10.1588 43.9309 9.82014C43.9535 9.77499 43.9987 9.75241 44.0438 9.77499C44.5179 9.97816 44.9694 10.1813 45.4435 10.4071C45.5112 10.4297 45.5789 10.4522 45.6466 10.4522C45.7144 10.4297 45.7595 10.4071 45.7821 10.3394C45.8047 10.2942 45.8047 10.2265 45.7821 10.1813C45.7595 10.1362 45.6918 10.091 45.6241 10.0459C44.9468 9.70726 44.247 9.41379 43.5472 9.14289C43.4794 9.12031 43.4117 9.09774 43.344 9.12031C43.2763 9.14289 43.2537 9.18804 43.2311 9.23319C42.8473 10.2491 42.441 11.2649 42.0572 12.2808C42.0346 12.3485 42.0346 12.3937 42.0572 12.4614C42.0798 12.5066 42.1249 12.5517 42.1927 12.5743C42.8022 12.8226 43.4343 13.0935 44.0212 13.3644C44.089 13.387 44.1341 13.4096 44.2018 13.387C44.2696 13.3644 44.2921 13.3418 44.3147 13.2741C44.3373 13.229 44.3373 13.1612 44.3147 13.1161C44.2921 13.0935 44.247 13.0484 44.1793 13.0258Z" fill="#5E222A"/>
<path d="M52.3738 14.4931C52.3513 14.448 52.3061 14.3802 52.2384 14.3351C52.1707 14.2899 52.1029 14.2222 52.0578 14.1771C52.0126 14.1319 51.9675 14.1093 51.9223 14.0868C51.8546 14.0642 51.8095 14.0642 51.7643 14.0868C51.2902 14.2899 50.8162 14.4931 50.3647 14.7189C50.3195 14.7414 50.2744 14.6963 50.2744 14.6511C50.3872 14.1545 50.4775 13.6578 50.5453 13.1612C50.5453 13.1161 50.5453 13.0483 50.5001 13.0032C50.4775 12.958 50.4324 12.9355 50.3872 12.8903C50.3195 12.8452 50.2518 12.8 50.1841 12.7549C50.1163 12.7097 50.0486 12.6871 50.0035 12.6646C49.9357 12.6646 49.8906 12.6871 49.8454 12.7323C49.8003 12.7774 49.8003 12.8452 49.7777 12.9355C49.6874 13.703 49.5745 14.448 49.4391 15.1929C49.2359 15.4638 49.0553 15.6896 48.8296 15.9605C48.7393 16.0508 48.6941 16.0959 48.7167 16.2088C48.7393 16.2765 48.7618 16.3217 48.807 16.3668C48.8973 16.4346 48.965 16.5023 49.0553 16.57C49.1005 16.6152 49.1682 16.6377 49.2359 16.6377C49.3262 16.6152 49.3939 16.5249 49.4391 16.4571C49.6648 16.1637 49.8454 15.9379 50.0712 15.6444C50.7484 15.351 51.4257 15.0575 52.1255 14.7866C52.1707 14.764 52.2158 14.7414 52.2384 14.7414C52.261 14.7189 52.2835 14.6963 52.3061 14.6963C52.3964 14.606 52.3964 14.5383 52.3738 14.4931Z" fill="#5E222A"/>
<path d="M47.3397 14.9446C47.3172 14.4254 47.272 13.9062 47.2269 13.3644C47.2269 13.3418 47.2494 13.3192 47.272 13.3192C47.5881 13.4547 47.859 13.4998 48.1073 13.4998C48.4008 13.4772 48.6039 13.3644 48.762 13.1386C48.9877 12.8226 49.0103 12.4614 48.8071 12.1002C48.6265 11.739 48.2202 11.3778 47.6332 11.0617C47.5429 10.994 47.43 10.9488 47.3172 10.8811C47.2043 10.836 47.0914 10.7682 46.956 10.7231C46.8882 10.7005 46.8205 10.6779 46.7754 10.7005C46.7076 10.7231 46.6851 10.7457 46.6399 10.7908C46.1207 11.7615 45.624 12.7323 45.1048 13.703C45.0822 13.7481 45.0822 13.8159 45.1048 13.8836C45.1274 13.9513 45.1725 13.9965 45.2177 14.019C45.2854 14.0642 45.3757 14.1093 45.4434 14.1545C45.5112 14.1771 45.5563 14.1996 45.624 14.1771C45.6918 14.1545 45.7369 14.1319 45.7595 14.0868C45.9852 13.703 46.1884 13.3192 46.4142 12.9354C46.4367 12.8903 46.527 12.9806 46.527 13.0032C46.5948 13.5901 46.6399 14.1996 46.6851 14.7866C46.6851 14.8543 46.7302 14.922 46.7979 14.9672C46.9108 15.0349 47.0237 15.1026 47.114 15.1704C47.1366 15.1929 47.1817 15.2155 47.2043 15.2155C47.2269 15.2155 47.2494 15.2155 47.2494 15.2155C47.272 15.2155 47.272 15.1929 47.2946 15.1929C47.3172 15.1704 47.3172 15.1478 47.3172 15.1026C47.3397 15.0349 47.3397 14.9898 47.3397 14.9446ZM47.272 11.4003C47.2946 11.3552 47.3397 11.3778 47.3623 11.3778C47.4075 11.4003 47.4526 11.4229 47.4752 11.4455C47.859 11.6712 48.0847 11.8744 48.175 12.0776C48.2653 12.2582 48.2427 12.4614 48.0847 12.7323C47.9718 12.9354 47.8138 13.0032 47.6332 13.0032C47.4526 13.0032 47.1817 12.9129 46.8431 12.7097C46.7754 12.6645 46.5948 12.5968 46.6173 12.5291C47.0688 11.739 46.8205 12.1679 47.272 11.4003Z" fill="#5E222A"/>
<path d="M34.2914 9.14288C34.2011 9.03 34.0657 8.93971 33.9077 8.84941C33.8851 8.82683 33.8851 8.78168 33.9077 8.78168C34.0657 8.71396 34.2237 8.64623 34.314 8.55593C34.4495 8.42048 34.5172 8.23988 34.5398 8.03671C34.5623 7.83353 34.5172 7.65293 34.4043 7.49491C34.2914 7.33688 34.1108 7.20143 33.8625 7.08856C33.6142 6.99826 33.2756 6.93053 32.8467 6.90796C32.7338 6.90796 32.5983 6.90796 32.4403 6.90796C32.3049 6.90796 32.1468 6.90796 31.9888 6.93053C31.9211 6.93053 31.8534 6.95311 31.8082 6.99826C31.7631 7.04341 31.7405 7.08856 31.7405 7.15628C31.7405 8.26246 31.7631 9.34605 31.7631 10.4522C31.7631 10.52 31.7856 10.5651 31.8308 10.6103C31.8759 10.6554 31.9437 10.678 31.9888 10.678C32.1243 10.7006 32.2597 10.7006 32.3726 10.7006C32.4854 10.7006 32.5983 10.7231 32.7112 10.7231C33.095 10.7231 33.411 10.7006 33.6593 10.6328C33.9077 10.5651 34.0883 10.4522 34.2237 10.2942C34.3592 10.1362 34.4269 9.933 34.4495 9.70725C34.4946 9.50408 34.4269 9.32348 34.2914 9.14288ZM33.4787 10.1813C33.3207 10.2942 33.0724 10.3394 32.7564 10.3168C32.7112 10.3168 32.666 10.3168 32.5983 10.3168C32.5532 10.3168 32.508 10.2942 32.508 10.2491C32.508 9.8427 32.5306 9.43635 32.5306 9.05258C32.5306 8.98485 32.5758 8.9397 32.6435 8.9397C33.0498 8.98485 33.3207 9.05258 33.5013 9.16545C33.6819 9.27833 33.7722 9.45893 33.7496 9.6621C33.7271 9.91043 33.6368 10.091 33.4787 10.1813ZM33.7496 7.67551C33.7948 7.76581 33.8174 7.87868 33.8174 7.99156C33.8174 8.10443 33.7722 8.21731 33.6819 8.28503C33.5916 8.35276 33.4787 8.42048 33.2756 8.46563C33.1175 8.48821 32.8918 8.51078 32.6435 8.53336C32.5983 8.53336 32.5532 8.48821 32.5532 8.44306C32.5532 8.10443 32.5758 7.76581 32.5758 7.44976C32.5758 7.33688 32.6209 7.33688 32.7338 7.33688C32.8241 7.33688 32.8918 7.33688 32.9369 7.33688C33.1853 7.33688 33.3884 7.38203 33.5013 7.44976C33.6368 7.49491 33.7045 7.58521 33.7496 7.67551Z" fill="#5E222A"/>
<path d="M27.9252 8.37526C27.8123 8.14951 27.6543 7.96891 27.4737 7.81089C27.2931 7.65286 27.0899 7.56256 26.8416 7.49484C26.6158 7.42711 26.3675 7.42711 26.1192 7.47226C25.916 7.51741 25.7128 7.60771 25.5322 7.72059C25.3065 7.87861 25.1259 8.08179 25.013 8.33011C24.9001 8.55586 24.8324 8.78161 24.7873 9.05251C24.7647 9.30083 24.7873 9.57173 24.855 9.82006C24.9453 10.1587 25.0807 10.4522 25.2839 10.6779C25.4871 10.9037 25.7354 11.0617 26.0063 11.152C26.2772 11.2423 26.5707 11.2649 26.8642 11.1971C27.1576 11.152 27.3834 11.0165 27.5866 10.8359C27.7897 10.6553 27.9478 10.407 28.0381 10.1135C28.0155 10.091 27.9929 10.0684 27.9929 10.0684C28.0155 10.091 28.0381 10.1135 28.0381 10.1135C28.1284 9.82006 28.1735 9.50401 28.1284 9.12023C28.1058 8.84934 28.0381 8.60101 27.9252 8.37526ZM27.3608 9.41371C27.3834 9.61688 27.3834 9.79748 27.3608 9.97808C27.3382 10.2038 27.2705 10.3844 27.1802 10.5199C27.0899 10.6553 26.977 10.7231 26.819 10.7456C26.6384 10.7682 26.4804 10.7456 26.3224 10.6779C26.1643 10.5876 26.0289 10.4747 25.916 10.2941C25.8031 10.1135 25.7128 9.88778 25.6451 9.63946C25.6 9.45886 25.5774 9.25568 25.5774 9.07508C25.5774 8.87191 25.6 8.71389 25.6451 8.53329C25.6903 8.37526 25.758 8.23981 25.8709 8.12694C25.9612 8.01406 26.074 7.96891 26.1869 7.94634C26.3675 7.90119 26.5481 7.94634 26.7061 8.03664C26.8642 8.14951 26.9996 8.30754 27.0899 8.51071C27.2028 8.73646 27.2705 8.98478 27.3157 9.25568C27.3382 9.30083 27.3608 9.36856 27.3608 9.41371Z" fill="#5E222A"/>
<path d="M37.8583 11.0391C37.768 9.91035 37.6551 8.75902 37.4971 7.63027C37.4971 7.58512 37.4745 7.5174 37.4294 7.49483C37.3842 7.44968 37.3165 7.4271 37.2488 7.4271C37.1133 7.40453 37.0004 7.38195 36.865 7.35938C36.7973 7.35938 36.7295 7.35938 36.6844 7.38195C36.6392 7.40453 36.5941 7.44968 36.5715 7.49483C36.0523 8.53327 35.5782 9.57172 35.1493 10.6102C35.1493 10.6327 35.1267 10.6553 35.1267 10.6779C35.1267 10.723 35.1267 10.7908 35.1719 10.8133C35.217 10.8585 35.2622 10.8585 35.3299 10.8811C35.4202 10.8811 35.5105 10.9036 35.5782 10.9036C35.6459 10.9036 35.6911 10.9036 35.7362 10.8811C35.7814 10.8585 35.8265 10.8133 35.8491 10.7682C35.9394 10.5424 36.0297 10.3393 36.12 10.1135C36.1426 10.0909 36.1652 10.0684 36.1877 10.0684C36.4812 10.1135 36.7521 10.1587 37.0456 10.2038C37.0682 10.2038 37.0907 10.2264 37.0907 10.2715C37.1133 10.5199 37.1359 10.7456 37.1359 10.9939C37.1359 11.0391 37.1585 11.1068 37.2036 11.152C37.2488 11.1971 37.2939 11.2197 37.3616 11.2197C37.4519 11.2423 37.5197 11.2423 37.61 11.2648C37.6777 11.2874 37.7228 11.2874 37.768 11.2423C37.8131 11.2197 37.8357 11.1745 37.8583 11.1294C37.8583 11.0842 37.8583 11.0617 37.8583 11.0391ZM36.3458 9.5943C36.5038 9.25567 36.6618 8.89447 36.8198 8.55585C36.8424 8.5107 36.9327 8.5107 36.9327 8.57842C36.9779 8.9622 37.023 9.34597 37.0456 9.72975C37.0456 9.7749 37.023 9.79747 36.9779 9.79747C36.7747 9.75232 36.5715 9.72975 36.3909 9.70717C36.3458 9.6846 36.3232 9.63945 36.3458 9.5943Z" fill="#5E222A"/>
<path d="M41.1993 11.9421C40.9735 11.31 40.7026 10.6779 40.4091 10.0233C40.3866 9.97812 40.4091 9.9104 40.4543 9.88782C41.0187 9.57177 41.6056 9.25572 42.2151 8.96225C42.2603 8.93967 42.3054 8.89452 42.328 8.84937C42.3506 8.80422 42.328 8.75907 42.3054 8.71392C42.2603 8.66877 42.2151 8.6462 42.17 8.62362C42.1023 8.60105 42.012 8.57847 41.9442 8.5559C41.8314 8.51075 41.7411 8.53332 41.6282 8.57847C41.1541 8.84937 40.68 9.12027 40.2285 9.39117C40.1382 9.43632 40.0479 9.3686 40.0705 9.2783C40.1608 8.96225 40.2511 8.62362 40.3414 8.30757C40.364 8.23985 40.364 8.1947 40.3188 8.12697C40.2737 8.08182 40.2285 8.03667 40.1382 8.0141C40.0479 7.99152 39.9576 7.96895 39.8673 7.94637C39.7996 7.9238 39.7319 7.9238 39.6642 7.94637C39.5964 7.96895 39.5739 8.0141 39.5513 8.08182C39.2804 9.14285 39.0321 10.2039 38.7612 11.2649C38.7386 11.3326 38.7386 11.3778 38.7837 11.4229C38.8063 11.4681 38.874 11.5132 38.9418 11.5132C39.0321 11.5358 39.0998 11.5584 39.1901 11.5809C39.2578 11.6035 39.3255 11.6035 39.3707 11.5809C39.4158 11.5584 39.461 11.5132 39.461 11.4455C39.5739 11.0617 39.6642 10.6779 39.777 10.2942C39.7996 10.1813 39.8673 10.1813 39.8899 10.2264C40.364 11.3326 40.364 11.3326 40.5672 11.8744C40.5897 11.9647 40.68 12.0324 40.7703 12.0776C40.8381 12.1002 40.9058 12.1227 40.9735 12.1453C41.0187 12.1679 41.0864 12.1679 41.1315 12.1679C41.1767 12.1453 41.2218 12.1227 41.2218 12.0776C41.2218 12.0324 41.1993 11.9873 41.1993 11.9421Z" fill="#5E222A"/>
<path d="M17.5633 50.8841C17.5633 50.8841 17.6536 51.1775 17.6536 51.2001L18.2857 53.1641C18.3308 53.3222 18.4663 53.4125 18.6243 53.3673L19.121 53.277C19.2113 53.2544 19.279 53.2319 19.3241 53.1641C19.3693 53.0964 19.4144 53.0287 19.4144 52.9384C19.4144 52.9158 19.4144 52.8932 19.3919 52.8932C19.3919 52.8707 19.3919 52.8481 19.3693 52.8481L18.692 50.7938L18.5792 50.41C18.4889 50.1165 18.1954 49.9585 17.9019 50.0488L17.8116 50.0939C17.315 50.2294 17.5633 50.8841 17.5633 50.8841Z" fill="#60222B"/>
<path d="M22.6878 53.2543L23.1167 53.3672C23.1844 53.3898 23.2521 53.3672 23.2973 53.3446C23.365 53.2995 23.4102 53.2769 23.4327 53.2092L24.6744 50.7711V50.7485C24.8098 50.5002 24.7195 50.1841 24.4486 50.0712L24.3809 50.0261C24.1326 49.8906 23.8165 49.9809 23.7036 50.2518L23.4779 50.6808C23.4779 50.7033 22.4169 52.7577 22.4169 52.7577C22.3943 52.8028 22.3943 52.8705 22.3943 52.9383C22.3943 53.0286 22.4169 53.0963 22.462 53.1414C22.5523 53.1866 22.62 53.2317 22.6878 53.2543Z" fill="#60222B"/>
<path d="M22.8007 54.2703H24.9002C24.9905 54.2703 25.0582 54.2251 25.1259 54.1799C25.1937 54.1348 25.2388 54.0445 25.2388 53.9768C25.2388 53.8865 25.1937 53.8188 25.1259 53.7736C25.0582 53.7285 24.9905 53.6833 24.9002 53.6833H21.988C21.8751 53.6833 21.6494 53.6156 21.6494 53.2318V50.3874V50.2745V50.0262C21.6494 49.7101 21.4011 49.4392 21.085 49.4392H20.9947C20.7013 49.4392 20.4304 49.6875 20.4304 50.0262V50.2971V53.3221C20.4304 53.5704 20.2723 53.7059 20.0692 53.7059H17.1344C17.0441 53.7059 16.9538 53.751 16.9087 53.7962C16.8409 53.8413 16.8184 53.9091 16.8184 53.9994C16.8184 54.0897 16.8409 54.1574 16.9087 54.2025C16.9764 54.2477 17.0441 54.2928 17.1344 54.2928H19.2565C19.3693 54.2928 19.4145 54.4283 19.3468 54.5186L17.3602 57.0018C17.315 57.0921 17.2699 57.1598 17.2699 57.2501C17.2699 57.3179 17.2924 57.363 17.315 57.4307C17.3602 57.4985 17.4279 57.5436 17.4956 57.5662L17.7891 57.6791C17.8117 57.6791 17.8342 57.7016 17.8342 57.7016C17.8568 57.7016 17.8568 57.7242 17.8794 57.7242C17.9697 57.7242 18.0374 57.6791 18.1051 57.6113L20.4981 54.4283C20.5658 54.338 20.6561 54.2928 20.769 54.2928H20.8593C21.1528 54.2928 21.2205 54.496 21.2205 54.654V57.205C21.2205 57.2727 21.243 57.3404 21.2656 57.3856C21.3333 57.4985 21.4462 57.521 21.5591 57.521H24.6067C24.6744 57.521 24.7422 57.4985 24.7873 57.4759C24.8776 57.4082 24.9228 57.2953 24.9228 57.1598V56.0311V55.9859C24.9228 55.6699 24.6744 55.4216 24.3584 55.4216H24.2681C23.9746 55.4216 23.7037 55.6699 23.7037 55.9859V56.0311V56.5729C23.7037 56.8212 23.4328 56.9115 23.3877 56.9115H22.8007C22.7556 56.9115 22.4621 56.9115 22.4621 56.5277V54.654C22.4621 54.2703 22.7781 54.2703 22.8007 54.2703Z" fill="#60222B"/>
<path d="M35.849 55.715L34.946 52.1031L34.8557 51.7419C34.788 51.4484 34.4945 51.2678 34.2011 51.3355L34.1108 51.3581C33.8173 51.4258 33.6367 51.7193 33.7044 52.0128L33.7947 52.374C33.7947 52.3965 34.6751 55.8956 34.6751 55.8956C34.7203 56.0762 34.8331 56.1665 35.0363 56.144L35.6007 56.0762C35.7587 56.0537 35.849 55.9859 35.849 55.8279C35.849 55.7828 35.849 55.7376 35.849 55.715Z" fill="#60222B"/>
<path d="M31.8081 49.4618H31.7178C31.4243 49.4618 31.1534 49.7101 31.1534 50.0262V50.0487V56.7309C31.1534 56.8664 31.0405 56.9567 30.9277 56.9341L30.7245 56.9115C30.6342 56.889 30.5439 56.9115 30.4762 56.9341C30.3859 56.9567 30.3633 57.0244 30.3633 57.1373V57.1599C30.3633 57.2502 30.3859 57.3179 30.4084 57.3856C30.431 57.4308 30.4987 57.4759 30.6116 57.4759L32.0113 57.6565C32.3499 57.6565 32.395 57.4308 32.395 57.2276V50.3422V50.0487V50.0262C32.3499 49.7101 32.1016 49.4618 31.8081 49.4618Z" fill="#60222B"/>
<path d="M29.6635 51.5162L29.5732 51.4936C29.2797 51.4033 28.9862 51.5839 28.8959 51.8548L28.783 52.2386L27.6769 55.8957C27.6543 55.9408 27.6543 55.986 27.6543 56.0086C27.6543 56.1666 27.7446 56.2343 27.9026 56.2569L28.4444 56.3472C28.625 56.3698 28.7605 56.302 28.8056 56.1214L29.9795 52.1934C30.1375 51.8999 29.9569 51.5839 29.6635 51.5162Z" fill="#60222B"/>
<path d="M13.7482 50.4099C13.7482 50.2067 13.6127 49.9584 13.2967 49.9358C13.2967 49.9358 7.87867 49.9132 7.76579 49.9132C7.76579 49.9132 7.42717 49.8907 7.29172 49.9132C7.04339 49.9358 6.86279 50.1616 6.86279 50.3647V57.5436C6.86279 57.7467 7.02082 57.8822 7.20142 57.8822H7.76579C7.94639 57.8822 8.05927 57.7919 8.08184 57.6113C8.08184 57.5887 8.10442 57.5887 8.10442 57.5887H12.484C12.5065 57.5887 12.5065 57.6113 12.5065 57.6113C12.5065 57.8145 12.6646 57.9499 12.8452 57.9499H13.3644C13.5676 57.9499 13.703 57.7919 13.703 57.6113L13.7482 50.4099ZM12.5291 56.8663C12.5291 56.934 12.4614 57.0018 12.3937 57.0018H8.21729C8.14957 57.0018 8.08184 56.934 8.08184 56.8663V54.5411C8.08184 54.2928 8.28502 54.1122 8.51077 54.1122H12.0776C12.3259 54.1122 12.5291 54.3153 12.5291 54.5637V56.8663ZM12.5291 53.3898C12.5291 53.4575 12.4614 53.5252 12.3937 53.5252H8.21729C8.14957 53.5252 8.08184 53.4575 8.08184 53.3898V50.9517C8.08184 50.7034 8.28502 50.5228 8.51077 50.5228H12.1002C12.3485 50.5228 12.5291 50.7259 12.5291 50.9517V53.3898Z" fill="#60222B"/>
<path d="M49.7328 50.4099H52.8707C53.0739 50.4099 53.1868 50.3196 53.1868 50.1165C53.1868 49.9359 53.0739 49.823 52.8707 49.823H49.7328C49.5296 49.823 49.4167 49.9133 49.4167 50.1165C49.4167 50.3196 49.5296 50.4099 49.7328 50.4099Z" fill="#60222B"/>
<path d="M56.9794 52.5998H54.609C54.5864 52.5998 54.5413 52.5772 54.5413 52.532L54.5864 51.7193C54.5864 51.5613 54.6767 51.4259 54.8122 51.3581L56.9116 50.2068C56.9116 50.2068 56.9116 50.2068 56.9342 50.2068C56.9342 50.2068 56.9568 50.2068 56.9568 50.1842C57.0697 50.1165 57.16 49.9811 57.16 49.8908C57.1825 49.823 57.16 49.7327 57.1374 49.665C57.0471 49.4844 56.7988 49.4393 56.5956 49.5521C56.573 49.5521 56.573 49.5747 56.5504 49.5747C56.3021 49.7102 54.2929 50.7938 53.6157 51.2001C53.3899 51.3356 53.4125 51.5839 53.3899 51.6742L53.0739 57.4308C53.0513 57.634 53.1642 57.7468 53.3674 57.7468L53.9543 57.7694C54.1575 57.792 54.2704 57.6791 54.2929 57.4759L54.5187 53.4125C54.5413 53.2319 54.6993 53.1641 54.7896 53.1641C54.7896 53.1641 54.9702 53.1641 55.1734 53.1641C55.354 53.1641 55.4443 53.3673 55.4443 53.435C55.4443 53.6156 55.4443 57.5662 55.4443 57.5662C55.4443 57.7694 55.6023 57.9274 55.8055 57.9274H56.2795C56.4827 57.9274 56.6407 57.7694 56.6407 57.5662V53.5028C56.6182 53.2544 56.7988 53.1867 56.8665 53.1641C56.9116 53.1416 57.0471 53.1416 57.0471 53.1416C57.2503 53.1416 57.3406 53.0738 57.3406 52.8707C57.2728 52.6901 57.1825 52.5998 56.9794 52.5998Z" fill="#60222B"/>
<path d="M52.6674 51.7645L49.6198 51.7871C49.4167 51.7871 49.3038 51.8774 49.3038 52.0806L49.0329 57.5211C49.0103 57.7243 49.1232 57.8372 49.3264 57.8372H49.9133C50.1165 57.8372 50.2294 57.7469 50.2294 57.5437L50.3422 55.1282C50.3422 55.1056 50.3648 55.083 50.41 55.083H51.7193C51.7419 55.083 51.7644 55.1056 51.7644 55.1282C51.7644 55.1959 51.787 55.2411 51.8322 55.2862C51.8999 55.3314 51.9676 55.3539 52.0579 55.3539H52.5771C52.7803 55.3539 52.9383 55.1959 52.9383 54.9927V52.058C52.9835 51.8548 52.8706 51.7645 52.6674 51.7645ZM51.7644 54.4735C51.7644 54.4961 51.7419 54.5412 51.6967 54.5412H50.41C50.3874 54.5412 50.3422 54.5187 50.3422 54.4735L50.4325 52.7578C50.4325 52.5095 50.6357 52.3289 50.884 52.3289H51.3129C51.5613 52.3289 51.7644 52.5321 51.7644 52.7804V54.4735Z" fill="#60222B"/>
<path d="M45.4885 54.0897H41.7862C41.7637 54.0897 41.7411 54.0897 41.7185 54.0671C41.7637 53.8865 41.7411 53.7285 41.6282 53.6156C41.4702 53.4576 41.1767 53.4576 40.9284 53.6156C40.8832 53.6382 40.8607 53.6607 40.8381 53.6833L40.7929 53.7285L40.7704 53.751L40.7478 53.7736L38.7838 55.7151C38.716 55.7828 38.6709 55.8505 38.6709 55.9182C38.6709 56.0085 38.7386 56.0763 38.8515 56.144L39.1224 56.2569C39.1675 56.2794 39.2353 56.302 39.303 56.302C39.3933 56.302 39.4836 56.2569 39.5513 56.1891L41.0187 54.7669C41.1316 54.654 41.425 54.6766 41.4702 54.6766H43.6148C43.7503 54.6766 43.818 54.8572 43.7051 54.9249L42.8247 55.5796C42.8021 55.6022 42.757 55.6022 42.7344 55.5796L41.6056 54.9475C41.5379 54.9024 41.4702 54.9024 41.4025 54.9024C41.3122 54.9024 41.2444 54.9249 41.1541 54.9927L41.0638 55.0604C40.9735 55.1281 40.9284 55.1958 40.9284 55.2636C40.9284 55.3539 40.9735 55.4216 41.0864 55.4667L42.012 55.986C42.0571 56.0085 42.0797 56.0988 42.012 56.1214L40.4317 57.2953C40.3414 57.363 40.2963 57.4308 40.2963 57.4985C40.2963 57.5888 40.3414 57.6565 40.4543 57.7017L40.6349 57.8145C40.7026 57.8597 40.7704 57.8823 40.8381 57.8823C40.9058 57.8823 40.9961 57.8597 41.0638 57.792L42.8247 56.4826C42.8473 56.46 42.8924 56.46 42.915 56.4826L43.8406 57.0018C43.9083 57.047 43.976 57.047 44.0437 57.047C44.134 57.047 44.2018 57.0244 44.2921 56.9567L44.3824 56.889C44.4727 56.8212 44.5178 56.7535 44.5178 56.6858C44.5178 56.5955 44.4727 56.5278 44.3598 56.4826L43.6374 56.0763C43.5922 56.0537 43.5697 55.9634 43.6374 55.9408L45.6466 54.4509C45.7369 54.338 45.6691 54.0897 45.4885 54.0897Z" fill="#60222B"/>
<path d="M46.2561 53.3221L43.2536 52.1934C43.1859 52.1708 43.1407 52.1256 43.1407 52.0579V51.0195C43.1407 50.8614 43.2762 50.726 43.4342 50.726H46.2109C46.4141 50.726 46.527 50.6357 46.527 50.4551C46.527 50.2745 46.4141 50.1842 46.2109 50.1842H43.231C43.1859 50.1842 43.1633 50.1616 43.1633 50.139C43.1633 49.7553 42.8924 49.4618 42.5538 49.4618C42.2377 49.4618 41.9668 49.7553 41.9443 50.1165C41.9443 50.1616 41.8991 50.1842 41.854 50.1842H38.6935C38.4903 50.1842 38.3774 50.2745 38.3774 50.4551C38.3774 50.6357 38.4903 50.726 38.6935 50.726H41.6508C41.8088 50.726 41.9443 50.8614 41.9443 50.9969C41.9443 50.9969 41.9217 51.6741 41.8991 52.0128C41.8991 52.1031 41.8314 52.1934 41.7185 52.2385L38.5354 53.3221C38.4 53.3673 38.3323 53.435 38.3323 53.5479C38.3323 53.593 38.3549 53.6607 38.4 53.7285V53.751C38.4677 53.8413 38.5806 53.9091 38.6935 53.9091H38.7386C38.7612 53.9091 38.7838 53.9091 38.8063 53.8865L41.7862 52.8706C41.8314 52.848 41.8991 52.8932 41.8991 52.9383V53.6382C41.8991 53.8639 42.0797 54.0219 42.3055 54.0219H42.7118C42.9376 54.0219 43.1182 53.8413 43.1182 53.6382V52.9609C43.1182 52.8932 43.1859 52.8706 43.231 52.8932L45.8949 53.8865C45.9626 53.9091 46.0078 53.9091 46.0529 53.9091C46.1658 53.9091 46.2561 53.8639 46.3238 53.7736L46.369 53.7285C46.4141 53.6607 46.4367 53.6156 46.4367 53.5704C46.4593 53.4576 46.3915 53.3898 46.2561 53.3221Z" fill="#60222B"/>
<path d="M45.2852 51.042C45.1724 50.884 44.924 50.8614 44.6757 50.9517H44.6531C44.5854 50.9969 44.4951 51.042 44.45 51.0872H44.4274C44.4048 51.1098 44.3597 51.1323 44.3371 51.1775L43.5921 51.8773C43.5244 51.945 43.4792 52.0128 43.4792 52.0805C43.4792 52.1708 43.547 52.2385 43.6598 52.3062L43.9082 52.4191C43.9759 52.4643 44.0436 52.4643 44.0888 52.4643C44.1791 52.4643 44.2468 52.4191 44.3371 52.3514L44.4274 52.2611C44.5177 52.1708 44.6531 52.1708 44.7434 52.2385L45.5336 52.8255C45.6013 52.8706 45.6916 52.9158 45.7593 52.9158C45.827 52.9158 45.8948 52.8932 45.9625 52.848L46.1431 52.7352C46.2334 52.6674 46.3011 52.5997 46.3011 52.532C46.3011 52.4643 46.256 52.3965 46.1657 52.3288L45.2627 51.6516C45.2401 51.629 45.2401 51.6064 45.2401 51.6064C45.353 51.4032 45.3981 51.1775 45.2852 51.042Z" fill="#60222B"/>
<path d="M40.2737 50.9066C40.0706 50.726 39.7319 50.7711 39.4836 51.042C39.461 51.0646 39.4385 51.1098 39.4159 51.1323L38.4452 52.4417C38.4 52.5094 38.3774 52.5771 38.3774 52.6223C38.3774 52.7126 38.4452 52.8029 38.5806 52.848L38.9644 52.9835C39.0095 53.0061 39.0547 53.006 39.0998 53.006C39.2127 53.006 39.303 52.9609 39.3707 52.848L39.7319 52.3739C39.8222 52.2611 39.9803 52.2159 40.0931 52.2837L40.6575 52.5094C40.7027 52.532 40.7704 52.5545 40.8381 52.5545C40.9284 52.5545 41.0187 52.5094 41.0864 52.4191L41.1542 52.3514C41.2219 52.2837 41.2445 52.2159 41.2445 52.1708C41.2445 52.0805 41.1767 52.0128 41.0413 51.945L40.4092 51.6741C40.364 51.6516 40.3415 51.6064 40.364 51.5613C40.4769 51.3355 40.4543 51.0646 40.2737 50.9066Z" fill="#60222B"/>
</svg>
