<svg width="120" height="120" viewBox="0 0 120 120" fill="none" xmlns="http://www.w3.org/2000/svg">
<mask id="mask0_698_8539" style="mask-type:alpha" maskUnits="userSpaceOnUse" x="0" y="0" width="120" height="120">
<rect width="120" height="120" fill="white"/>
</mask>
<g mask="url(#mask0_698_8539)">
<path d="M97.3122 46.4285C96.127 43.1693 94.9418 40.291 90.6243 39.9523C86.9841 39.6137 86.5608 41.6031 86.3069 43.3809C86.0952 46.2169 84.8254 46.6825 83.8095 46.9365C82.2434 47.3174 74.0741 49.2645 74.0741 49.2645L71.8307 49.8148L65.3968 51.3386L57.3122 53.2857C57.3122 53.2857 47.7883 55.5714 45.9682 55.9947C44.6561 56.291 42.7513 56.5449 40.9735 52.9894C40.9312 52.9047 40.8889 52.8624 40.8042 52.7354C40 51.2539 38.8148 51.2116 37.9259 51.6349C37.7143 51.7619 37.545 51.8888 37.3333 52.1005C37.291 52.1428 37.2487 52.1851 37.2487 52.2275C36.4444 53.0317 35.3439 53.6243 34.0741 53.9206C30.8571 54.6825 27.7249 53.1164 27.0899 50.4497C26.455 47.783 28.5291 44.947 31.746 44.1851C31.9577 44.1428 32.1693 44.1005 32.3809 44.0582C32.3809 44.0582 35.9365 43.4656 37.7566 43.6349C38.0529 43.6772 38.3492 43.7619 38.6032 43.8888C42.6667 46.0052 48.0423 45.3703 48.3386 43.8888C49.0159 40.6719 44.4021 37.6666 43.8518 37.3703C43.1746 37.0317 42.7936 36.5661 43.0899 35.9312C44.7831 31.9523 44.1058 28.4391 42.7936 27.1693C41.8201 26.2381 36.5714 29.201 34.7936 33.7301C34.582 34.2381 34.2434 34.7037 33.7778 35C21.7566 43.4656 18.836 57.3915 24.1693 69.2433C29.9682 82.1957 75.6825 79.91 86.2222 75.3386C97.9471 70.8941 100.021 56.6719 97.3122 46.4285Z" fill="#E9E5DA"/>
<path d="M57.1429 24.164C56.127 22.6402 45.8836 26.619 46.5185 34.2804C47.1535 41.9418 58.4127 43.8889 59.2593 41.8571C60.5715 38.8095 56.5926 34.873 56.127 34.4921C55.4921 34.0265 55.2381 33.4762 55.6614 32.8836C58.1588 29.2857 58.1588 25.6878 57.1429 24.164Z" fill="#E6A73D"/>
<path d="M70.9841 23.3598C70.0529 21.7513 59.5555 24.9682 59.6402 32.6719C59.6825 40.3333 70.7724 43.1269 71.7883 41.1799C73.3544 38.2169 69.6719 34.0264 69.2063 33.6031C68.6137 33.0952 68.4021 32.5449 68.8677 31.9523C71.619 28.5661 71.9153 24.9682 70.9841 23.3598Z" fill="#E6A73D"/>
<path d="M77.8836 28.3545C73.9048 28.0582 72.508 30.4286 72.2963 31.6561C72.254 33.7301 74.1588 35.3386 77.7567 35.3809C80.8043 35.4233 84.9948 32.8836 84.9948 31.8677C84.7831 30.5555 81.8625 28.6508 77.8836 28.3545Z" fill="#E6A73D"/>
<path d="M33.5661 21.328C32.3809 19.3809 31.9577 18.6614 30.8148 16.7143C30.8148 16.7143 30.7725 16.6719 30.7725 16.6296C30.7725 16.5873 30.8148 16.545 30.8571 16.545C31.0688 16.5026 31.2381 16.3756 31.3227 16.2063C31.3651 16.0793 31.3651 15.9947 31.3227 15.91C31.2804 15.8254 31.1958 15.7407 31.0688 15.7407C30.9418 15.7407 30.8148 15.7407 30.6878 15.8254C30.0106 16.2063 29.3333 16.6296 28.6561 17.0529C28.5291 17.1375 28.4444 17.2222 28.4021 17.3492C28.3598 17.4762 28.3598 17.5608 28.4021 17.6455C28.4444 17.7301 28.5714 17.7725 28.6984 17.8148C28.8677 17.8148 29.037 17.7301 29.2063 17.6032C29.291 17.5608 29.3333 17.5608 29.3757 17.6032C30.3069 19.127 31.2381 20.6508 32.1693 22.1746C32.1693 22.1746 32.1693 22.2169 32.127 22.2592C31.9577 22.3862 31.746 22.4286 31.7037 22.5979C31.6614 22.7248 31.6614 22.8095 31.746 22.8942C31.7884 22.9788 31.9153 23.0211 32 23.0635C32.127 23.0635 32.254 23.0211 32.3809 22.9365C32.9312 22.5555 33.4815 22.2169 34.0741 21.9206C34.2011 21.8783 34.2857 21.7936 34.328 21.6666C34.3704 21.5397 34.3704 21.455 34.328 21.3704C34.2857 21.2857 34.2011 21.201 34.0741 21.201C33.9048 21.1587 33.7354 21.2434 33.6085 21.3704C33.6085 21.328 33.5661 21.328 33.5661 21.328Z" fill="#E9E5DA"/>
<path d="M26.5398 18.5344C26.4128 18.5344 26.2858 18.5768 26.1588 18.6614C26.0318 18.7461 25.9048 18.8307 25.7779 18.9154C25.6509 19 25.5662 19.0847 25.5239 19.2117C25.4816 19.3387 25.5239 19.4233 25.6085 19.5503C26.3704 20.6508 27.1747 21.709 27.9366 22.8096C28.0212 22.9365 27.8943 23.0635 27.7673 23.0212C26.2858 22.3863 24.762 21.7937 23.1535 21.2434C23.0689 21.2011 22.9419 21.2011 22.8572 21.2434C22.7302 21.2857 22.6456 21.3281 22.5609 21.4127C22.3493 21.582 22.1376 21.7514 21.926 21.9207C21.799 22.0053 21.7144 22.1323 21.7144 22.2593C21.672 22.3863 21.7144 22.4709 21.799 22.5556C23.1112 24.1217 24.4657 25.6455 25.7779 27.2117C25.8625 27.2963 25.9472 27.3387 26.0741 27.3387C26.2011 27.3387 26.2858 27.2963 26.4128 27.2117C26.5398 27.127 26.6244 27.0424 26.7514 26.9577C26.8361 26.873 26.9207 26.7884 26.963 26.6614C26.963 26.5344 26.9207 26.4498 26.8784 26.3651C26.0318 25.3492 25.2276 24.291 24.381 23.2752C24.2964 23.1482 24.4234 22.9789 24.5503 23.0635C26.0741 23.6138 27.598 24.2064 29.0371 24.8836C29.1218 24.926 29.2064 24.926 29.3334 24.926C29.4181 24.926 29.545 24.8836 29.6297 24.799C29.8413 24.672 30.0107 24.5027 30.2223 24.3757C30.307 24.291 30.3916 24.2064 30.4339 24.0794C30.4763 23.9524 30.4339 23.8678 30.3493 23.7831C29.2064 22.09 28.0212 20.3969 26.8784 18.7037C26.7514 18.6191 26.6667 18.5344 26.5398 18.5344Z" fill="#E9E5DA"/>
<path d="M46.3916 16.2488C45.418 15.5292 44.4022 14.8519 43.344 14.1747C43.1746 14.09 43.1323 13.8361 43.217 13.6667C43.7249 12.6085 44.2752 11.5927 44.9101 10.5345C44.9524 10.4498 44.9947 10.3652 44.9524 10.2382C44.9101 10.1535 44.8678 10.0689 44.7831 10.0689C44.6985 10.0265 44.5715 10.0689 44.4868 10.0689C44.3175 10.1112 44.1905 10.1535 44.0212 10.1958C43.8096 10.2382 43.6826 10.3652 43.5556 10.5345C43.0477 11.4657 42.6244 12.3969 42.2011 13.3704C42.1588 13.4974 41.9471 13.4974 41.9048 13.3704C41.6932 12.7355 41.4815 12.1006 41.2699 11.4657C41.2276 11.3387 41.1852 11.254 41.0582 11.2117C40.9313 11.1694 40.8043 11.1694 40.6773 11.2117C40.508 11.254 40.3387 11.3387 40.1694 11.381C40.0424 11.4234 39.9154 11.508 39.8731 11.5927C39.8307 11.6773 39.8307 11.8043 39.8731 11.9313C40.5926 13.8361 41.2699 15.7831 41.9895 17.6879C42.0318 17.8149 42.0741 17.8995 42.2011 17.9419C42.2858 17.9842 42.4127 17.9842 42.5397 17.9419C42.6667 17.8995 42.836 17.8572 42.963 17.7726C43.09 17.7302 43.1746 17.6879 43.217 17.5609C43.2593 17.4763 43.2593 17.3493 43.217 17.2223C42.963 16.5027 42.7514 15.8255 42.4974 15.1059C42.4551 14.9789 42.4974 14.8519 42.6667 14.8943C43.5979 15.4869 44.4868 16.0794 45.3757 16.7144C45.545 16.8413 45.7143 16.8413 45.8836 16.799C46.0106 16.7567 46.1376 16.7144 46.2646 16.672C46.3492 16.6297 46.4339 16.5874 46.5186 16.5451C46.6032 16.4604 46.6032 16.3757 46.5609 16.2911C46.5186 16.3757 46.4762 16.2911 46.3916 16.2488Z" fill="#E9E5DA"/>
<path d="M40.1693 18.3227C39.1111 17.7301 38.0106 17.2221 36.9101 16.6719C36.6984 16.5872 36.6138 16.3332 36.6984 16.1216C37.0794 15.0211 37.5026 13.9205 37.9683 12.8623C38.0106 12.7777 38.0106 12.6507 37.9683 12.566C37.9259 12.4814 37.8836 12.4391 37.7566 12.3967C37.672 12.3967 37.545 12.3967 37.4603 12.4391C37.3333 12.4814 37.164 12.566 37.037 12.6084C36.8254 12.693 36.6984 12.82 36.6138 13.0316C36.2328 14.0052 35.8942 15.0211 35.5979 15.9946C35.5556 16.1216 35.3439 16.1639 35.3016 16.0369C35.0053 15.4443 34.709 14.8518 34.4127 14.2592C34.3704 14.1745 34.2857 14.0899 34.1587 14.0475C34.0317 14.0052 33.9048 14.0475 33.7778 14.1322C33.6085 14.2168 33.4392 14.3015 33.3122 14.3861C33.1852 14.4708 33.1005 14.5555 33.0159 14.6401C32.9735 14.7671 32.9735 14.8518 33.0159 14.9787C33.9471 16.7988 34.8783 18.619 35.8519 20.4391C35.8942 20.5237 35.9788 20.6084 36.1058 20.6507C36.2328 20.693 36.3175 20.6507 36.4444 20.6084C36.5714 20.5237 36.7407 20.4814 36.8677 20.3967C36.9947 20.3544 37.0794 20.2697 37.1217 20.1428C37.164 20.0581 37.164 19.9311 37.0794 19.8041C36.7407 19.1269 36.4444 18.4496 36.1058 17.7724C36.0212 17.6031 36.1058 17.4761 36.1905 17.5184C37.2064 17.984 38.2222 18.492 39.1958 18.9999C39.3651 19.0846 39.5344 19.0846 39.746 18.9999C39.873 18.9576 40 18.8729 40.127 18.8306C40.2116 18.7883 40.2963 18.7459 40.3386 18.6613C40.381 18.5766 40.381 18.492 40.381 18.4073C40.3386 18.4496 40.254 18.365 40.1693 18.3227Z" fill="#E9E5DA"/>
<path d="M82.836 19.4233C82.0741 19.0423 81.2699 18.7037 80.4657 18.3651C80.381 18.3228 80.3387 18.2381 80.381 18.1535C80.635 17.5609 80.8889 16.9683 81.1429 16.3757C81.1852 16.291 81.2699 16.2487 81.3545 16.291C82.1164 16.5873 82.836 16.9259 83.5556 17.2646C83.6826 17.3069 83.8096 17.3492 83.8942 17.3069C84.0212 17.2646 84.0635 17.2222 84.1482 17.0952C84.1905 17.0106 84.1905 16.8836 84.1482 16.799C84.1059 16.7143 83.9789 16.6296 83.8942 16.545C83.1323 16.2064 82.4127 15.8677 81.6508 15.5291C81.5662 15.4868 81.5238 15.4021 81.5662 15.3175C81.8201 14.6826 82.0741 14.0476 82.3704 13.4127C82.4127 13.3281 82.4974 13.2857 82.5821 13.3281C83.4709 13.709 84.3175 14.09 85.2064 14.5132C85.3334 14.5556 85.4604 14.5979 85.5873 14.5979C85.7143 14.5556 85.799 14.5132 85.8413 14.3863C85.8836 14.3016 85.8836 14.1746 85.8413 14.09C85.799 14.0053 85.672 13.9206 85.545 13.836C84.2752 13.2011 82.963 12.6508 81.6508 12.1429C81.5238 12.1005 81.3969 12.0582 81.2699 12.1005C81.1429 12.1429 81.1006 12.2275 81.0582 12.3122C80.3387 14.2169 79.5768 16.1217 78.8572 18.0265C78.8149 18.1535 78.8149 18.2381 78.8572 18.3651C78.8995 18.4497 78.9842 18.5344 79.1111 18.5767C80.254 19.0423 81.4392 19.5503 82.5397 20.0582C82.6667 20.1005 82.7514 20.1429 82.8783 20.1005C83.0053 20.0582 83.0477 20.0159 83.09 19.8889C83.1323 19.8042 83.1323 19.6773 83.09 19.5926C83.0477 19.5503 82.963 19.4656 82.836 19.4233Z" fill="#E9E5DA"/>
<path d="M98.2009 22.1747C98.1586 22.09 98.0739 21.963 97.947 21.8784C97.82 21.7937 97.693 21.6667 97.6083 21.5821C97.5237 21.4974 97.439 21.4551 97.3544 21.4128C97.2274 21.3704 97.1427 21.3704 97.0581 21.4128C96.1692 21.7937 95.2803 22.1747 94.4337 22.5979C94.3491 22.6403 94.2644 22.5556 94.2644 22.471C94.4761 21.5397 94.6454 20.6085 94.7724 19.6773C94.7724 19.5927 94.7724 19.4657 94.6877 19.381C94.6454 19.2964 94.5607 19.254 94.4761 19.1694C94.3491 19.0847 94.2221 19.0001 94.0951 18.9154C93.9681 18.8308 93.8411 18.7884 93.7565 18.7461C93.6295 18.7461 93.5449 18.7884 93.4602 18.8731C93.3755 18.9577 93.3755 19.0847 93.3332 19.254C93.1639 20.6932 92.9523 22.09 92.6983 23.4868C92.3173 23.9948 91.9787 24.4181 91.5554 24.926C91.3861 25.0953 91.3015 25.18 91.3438 25.3916C91.3861 25.5186 91.4284 25.6032 91.5131 25.6879C91.6824 25.8149 91.8094 25.9419 91.9787 26.0688C92.0634 26.1535 92.1904 26.1958 92.3173 26.1958C92.4867 26.1535 92.6136 25.9842 92.6983 25.8572C93.1216 25.3069 93.4602 24.8837 93.8835 24.3334C95.1533 23.7831 96.4232 23.2329 97.7353 22.7249C97.82 22.6826 97.9046 22.6403 97.947 22.6403C97.9893 22.5979 98.0316 22.5556 98.0739 22.5556C98.2433 22.3863 98.2433 22.2593 98.2009 22.1747Z" fill="#E9E5DA"/>
<path d="M88.7618 23.0211C88.7194 22.0476 88.6348 21.074 88.5501 20.0581C88.5501 20.0158 88.5925 19.9735 88.6348 19.9735C89.2274 20.2275 89.7353 20.3121 90.2009 20.3121C90.7512 20.2698 91.1321 20.0581 91.4284 19.6349C91.8517 19.0423 91.894 18.365 91.5131 17.6878C91.1745 17.0105 90.4126 16.3333 89.312 15.7407C89.1427 15.6137 88.9311 15.529 88.7194 15.4021C88.5078 15.3174 88.2962 15.1904 88.0422 15.1058C87.9152 15.0634 87.7882 15.0211 87.7036 15.0634C87.5766 15.1058 87.5343 15.1481 87.4496 15.2327C86.4761 17.0528 85.5448 18.873 84.5713 20.6931C84.529 20.7777 84.529 20.9047 84.5713 21.0317C84.6136 21.1587 84.6983 21.2433 84.7829 21.2857C84.9099 21.3703 85.0792 21.455 85.2062 21.5396C85.3332 21.5819 85.4179 21.6243 85.5448 21.5819C85.6718 21.5396 85.7565 21.4973 85.7988 21.4126C86.2221 20.6931 86.603 19.9735 87.0263 19.2539C87.0687 19.1693 87.238 19.3386 87.238 19.3809C87.3649 20.4814 87.4496 21.6243 87.5343 22.7248C87.5343 22.8518 87.6189 22.9788 87.7459 23.0634C87.9575 23.1904 88.1692 23.3174 88.3385 23.4444C88.3808 23.4867 88.4655 23.529 88.5078 23.529C88.5501 23.529 88.5925 23.529 88.5925 23.529C88.6348 23.529 88.6348 23.4867 88.6771 23.4867C88.7194 23.4444 88.7194 23.4021 88.7194 23.3174C88.7618 23.1904 88.7618 23.1058 88.7618 23.0211ZM88.6348 16.3756C88.6771 16.2909 88.7618 16.3333 88.8041 16.3333C88.8888 16.3756 88.9734 16.4179 89.0157 16.4603C89.7353 16.8835 90.1586 17.2645 90.3279 17.6454C90.4972 17.9841 90.4549 18.365 90.1586 18.873C89.947 19.2539 89.6507 19.3809 89.312 19.3809C88.9734 19.3809 88.4655 19.2116 87.8306 18.8306C87.7036 18.746 87.3649 18.619 87.4073 18.492C88.2538 17.0105 87.7882 17.8148 88.6348 16.3756Z" fill="#E9E5DA"/>
<path d="M64.2962 12.1429C64.1269 11.9312 63.873 11.7619 63.5767 11.5926C63.5343 11.5503 63.5343 11.4656 63.5767 11.4656C63.873 11.3386 64.1693 11.2117 64.3386 11.0423C64.5925 10.7884 64.7195 10.4497 64.7619 10.0688C64.8042 9.68784 64.7195 9.34922 64.5079 9.05292C64.2962 8.75663 63.9576 8.50266 63.492 8.29102C63.0264 8.1217 62.3915 7.99472 61.5873 7.95239C61.3756 7.95239 61.1216 7.95239 60.8253 7.95239C60.5714 7.95239 60.2751 7.95239 59.9788 7.99472C59.8518 7.99472 59.7248 8.03705 59.6402 8.1217C59.5555 8.20636 59.5132 8.29102 59.5132 8.418C59.5132 10.4921 59.5555 12.5238 59.5555 14.5979C59.5555 14.7249 59.5978 14.8095 59.6825 14.8942C59.7671 14.9788 59.8941 15.0212 59.9788 15.0212C60.2328 15.0635 60.4867 15.0635 60.6984 15.0635C60.91 15.0635 61.1216 15.1058 61.3333 15.1058C62.0529 15.1058 62.6455 15.0635 63.1111 14.9365C63.5767 14.8095 63.9153 14.5979 64.1693 14.3016C64.4232 14.0053 64.5502 13.6244 64.5925 13.2011C64.6772 12.8201 64.5502 12.4815 64.2962 12.1429ZM62.7724 14.09C62.4761 14.3016 62.0105 14.3863 61.4179 14.3439C61.3333 14.3439 61.2486 14.3439 61.1216 14.3439C61.037 14.3439 60.9523 14.3016 60.9523 14.2169C60.9523 13.455 60.9947 12.6931 60.9947 11.9736C60.9947 11.8466 61.0793 11.7619 61.2063 11.7619C61.9682 11.8466 62.4761 11.9736 62.8148 12.1852C63.1534 12.3968 63.3227 12.7355 63.2804 13.1164C63.238 13.582 63.0687 13.9206 62.7724 14.09ZM63.2804 9.39155C63.365 9.56086 63.4074 9.7725 63.4074 9.98414C63.4074 10.1958 63.3227 10.4074 63.1534 10.5344C62.9841 10.6614 62.7724 10.7884 62.3915 10.873C62.0952 10.9154 61.6719 10.9577 61.2063 11C61.1216 11 61.037 10.9154 61.037 10.8307C61.037 10.1958 61.0793 9.56086 61.0793 8.96827C61.0793 8.75663 61.164 8.75663 61.3756 8.75663C61.5449 8.75663 61.6719 8.75663 61.7566 8.75663C62.2222 8.75663 62.6031 8.84128 62.8148 8.96827C63.0687 9.05292 63.1957 9.22223 63.2804 9.39155Z" fill="#E9E5DA"/>
<path d="M52.3599 10.7038C52.1483 10.2805 51.852 9.94188 51.5134 9.64558C51.1747 9.34928 50.7938 9.17997 50.3282 9.05299C49.9049 8.926 49.4393 8.926 48.9737 9.01066C48.5927 9.09532 48.2118 9.26463 47.8731 9.47627C47.4499 9.77257 47.1112 10.1535 46.8996 10.6191C46.688 11.0424 46.561 11.4657 46.4763 11.9736C46.434 12.4392 46.4763 12.9472 46.6033 13.4128C46.7726 14.0477 47.0266 14.598 47.4075 15.0212C47.7885 15.4445 48.2541 15.7408 48.762 15.9101C49.27 16.0794 49.8202 16.1218 50.3705 15.9948C50.9208 15.9101 51.344 15.6562 51.725 15.3175C52.1059 14.9789 52.4022 14.5133 52.5716 13.963C52.5292 13.9207 52.4869 13.8784 52.4869 13.8784C52.5292 13.9207 52.5716 13.963 52.5716 13.963C52.7409 13.4128 52.8255 12.8202 52.7409 12.1006C52.6985 11.5927 52.5716 11.1271 52.3599 10.7038ZM51.3017 12.6509C51.344 13.0318 51.344 13.3704 51.3017 13.7091C51.2594 14.1324 51.1324 14.471 50.9631 14.7249C50.7938 14.9789 50.5821 15.1059 50.2858 15.1482C49.9472 15.1906 49.6509 15.1482 49.3546 15.0212C49.0583 14.8519 48.8044 14.6403 48.5927 14.3017C48.3811 13.963 48.2118 13.5398 48.0848 13.0742C48.0001 12.7355 47.9578 12.3546 47.9578 12.016C47.9578 11.635 48.0001 11.3387 48.0848 11.0001C48.1694 10.7038 48.2964 10.4498 48.5081 10.2382C48.6774 10.0265 48.889 9.94188 49.1007 9.89955C49.4393 9.81489 49.7779 9.89955 50.0742 10.0689C50.3705 10.2805 50.6245 10.5768 50.7938 10.9578C51.0054 11.381 51.1324 11.8466 51.2171 12.3546C51.2594 12.4392 51.3017 12.5662 51.3017 12.6509Z" fill="#E9E5DA"/>
<path d="M70.984 15.6983C70.8147 13.5819 70.603 11.4232 70.3067 9.30676C70.3067 9.22211 70.2644 9.09513 70.1798 9.0528C70.0951 8.96814 69.9681 8.92581 69.8411 8.92581C69.5872 8.88349 69.3755 8.84116 69.1216 8.79883C68.9946 8.79883 68.8676 8.79883 68.7829 8.84116C68.6983 8.88349 68.6136 8.96814 68.5713 9.0528C67.5978 10.9999 66.7089 12.947 65.9046 14.8941C65.9046 14.9364 65.8623 14.9787 65.8623 15.0211C65.8623 15.1057 65.8623 15.2327 65.947 15.275C66.0316 15.3597 66.1163 15.3597 66.2433 15.402C66.4126 15.402 66.5819 15.4443 66.7089 15.4443C66.8358 15.4443 66.9205 15.4443 67.0052 15.402C67.0898 15.3597 67.1745 15.275 67.2168 15.1904C67.3861 14.7671 67.5554 14.3861 67.7247 13.9628C67.7671 13.9205 67.8094 13.8782 67.8517 13.8782C68.402 13.9628 68.9099 14.0475 69.4602 14.1322C69.5025 14.1322 69.5448 14.1745 69.5448 14.2591C69.5872 14.7248 69.6295 15.148 69.6295 15.6136C69.6295 15.6983 69.6718 15.8253 69.7565 15.9099C69.8411 15.9946 69.9258 16.0369 70.0528 16.0369C70.2221 16.0793 70.3491 16.0793 70.5184 16.1216C70.6454 16.1639 70.73 16.1639 70.8147 16.0793C70.8993 16.0369 70.9417 15.9523 70.984 15.8676C70.984 15.783 70.984 15.7406 70.984 15.6983ZM68.148 12.9893C68.4443 12.3544 68.7406 11.6771 69.0369 11.0422C69.0792 10.9576 69.2485 10.9576 69.2485 11.0845C69.3332 11.8041 69.4179 12.5237 69.4602 13.2433C69.4602 13.3279 69.4179 13.3703 69.3332 13.3703C68.9523 13.2856 68.5713 13.2433 68.2327 13.2009C68.148 13.1586 68.1057 13.074 68.148 12.9893Z" fill="#E9E5DA"/>
<path d="M77.2486 17.3915C76.8254 16.2063 76.3174 15.0211 75.7672 13.7936C75.7248 13.7089 75.7672 13.582 75.8518 13.5396C76.91 12.947 78.0106 12.3544 79.1534 11.8042C79.2381 11.7619 79.3227 11.6772 79.365 11.5925C79.4074 11.5079 79.365 11.4232 79.3227 11.3386C79.2381 11.2539 79.1534 11.2116 79.0688 11.1693C78.9418 11.1269 78.7725 11.0846 78.6455 11.0423C78.4338 10.9576 78.2645 11 78.0529 11.0846C77.164 11.5925 76.2751 12.1005 75.4285 12.6084C75.2592 12.6931 75.0899 12.5661 75.1322 12.3968C75.3016 11.8042 75.4709 11.1693 75.6402 10.5767C75.6825 10.4497 75.6825 10.365 75.5979 10.238C75.5132 10.1534 75.4285 10.0687 75.2592 10.0264C75.0899 9.98408 74.9206 9.94175 74.7513 9.89942C74.6243 9.85709 74.4973 9.85709 74.3703 9.89942C74.2434 9.94175 74.201 10.0264 74.1587 10.1534C73.6508 12.1428 73.1852 14.1322 72.6772 16.1216C72.6349 16.2486 72.6349 16.3333 72.7195 16.4179C72.7619 16.5026 72.8889 16.5873 73.0158 16.5873C73.1852 16.6296 73.3121 16.6719 73.4815 16.7142C73.6084 16.7566 73.7354 16.7566 73.8201 16.7142C73.9047 16.6719 73.9894 16.5873 73.9894 16.4603C74.201 15.7407 74.3703 15.0211 74.582 14.3015C74.6243 14.0899 74.7513 14.0899 74.7936 14.1746C75.6825 16.2486 75.6825 16.2486 76.0635 17.2645C76.1058 17.4338 76.2751 17.5608 76.4444 17.6455C76.5714 17.6878 76.6984 17.7301 76.8254 17.7724C76.91 17.8148 77.037 17.8148 77.1217 17.8148C77.2063 17.7724 77.291 17.7301 77.291 17.6455C77.291 17.5608 77.2486 17.4761 77.2486 17.3915Z" fill="#E9E5DA"/>
<path d="M32.9313 90.4074C32.9313 90.4074 33.1007 90.9576 33.1007 91L34.2858 94.6825C34.3705 94.9788 34.6245 95.1481 34.9208 95.0635L35.852 94.8941C36.0213 94.8518 36.1483 94.8095 36.2329 94.6825C36.3176 94.5555 36.4022 94.4285 36.4022 94.2592C36.4022 94.2169 36.4022 94.1746 36.3599 94.1746C36.3599 94.1322 36.3599 94.0899 36.3176 94.0899L35.0477 90.2381L34.8361 89.5185C34.6668 88.9682 34.1165 88.6719 33.5663 88.8412L33.397 88.9259C32.4657 89.1799 32.9313 90.4074 32.9313 90.4074Z" fill="#E9E5DA"/>
<path d="M42.5398 94.852L43.344 95.0636C43.471 95.1059 43.598 95.0636 43.6826 95.0213C43.8096 94.9366 43.8943 94.8943 43.9366 94.7673L46.2646 90.1959V90.1536C46.5186 89.6879 46.3493 89.0953 45.8414 88.8837L45.7144 88.7991C45.2488 88.5451 44.6562 88.7144 44.4445 89.2223L44.0212 90.0266C44.0212 90.0689 42.0318 93.9208 42.0318 93.9208C41.9895 94.0054 41.9895 94.1324 41.9895 94.2594C41.9895 94.4287 42.0318 94.5557 42.1165 94.6403C42.2858 94.725 42.4128 94.8096 42.5398 94.852Z" fill="#E9E5DA"/>
<path d="M42.7514 96.7567H46.6879C46.8572 96.7567 46.9842 96.672 47.1111 96.5874C47.2381 96.5027 47.3228 96.3334 47.3228 96.2064C47.3228 96.0371 47.2381 95.9101 47.1111 95.8255C46.9842 95.7408 46.8572 95.6562 46.6879 95.6562H41.2275C41.0159 95.6562 40.5926 95.5292 40.5926 94.8096V89.4763V89.2646V88.799C40.5926 88.2064 40.127 87.6985 39.5344 87.6985H39.3651C38.8148 87.6985 38.3069 88.1641 38.3069 88.799V89.307V94.9789C38.3069 95.4445 38.0106 95.6985 37.6297 95.6985H32.127C31.9577 95.6985 31.7884 95.7831 31.7037 95.8678C31.5768 95.9525 31.5344 96.0794 31.5344 96.2488C31.5344 96.4181 31.5768 96.545 31.7037 96.6297C31.8307 96.7144 31.9577 96.799 32.127 96.799H36.1059C36.3175 96.799 36.4021 97.053 36.2752 97.2223L32.5503 101.878C32.4656 102.048 32.381 102.175 32.381 102.344C32.381 102.471 32.4233 102.556 32.4656 102.683C32.5503 102.81 32.6773 102.894 32.8043 102.937L33.3545 103.148C33.3969 103.148 33.4392 103.191 33.4392 103.191C33.4815 103.191 33.4815 103.233 33.5238 103.233C33.6932 103.233 33.8201 103.148 33.9471 103.021L38.4339 97.053C38.5609 96.8837 38.7302 96.799 38.9418 96.799H39.1111C39.6614 96.799 39.7884 97.18 39.7884 97.4763V102.259C39.7884 102.386 39.8307 102.513 39.873 102.598C40 102.81 40.2117 102.852 40.4233 102.852H46.1376C46.2646 102.852 46.3916 102.81 46.4762 102.767C46.6455 102.64 46.7302 102.429 46.7302 102.175V100.058V99.9736C46.7302 99.381 46.2646 98.9154 45.672 98.9154H45.5027C44.9524 98.9154 44.4445 99.381 44.4445 99.9736V100.058V101.074C44.4445 101.54 43.9365 101.709 43.8519 101.709H42.7514C42.6667 101.709 42.1164 101.709 42.1164 100.989V97.4763C42.1164 96.7567 42.709 96.7567 42.7514 96.7567Z" fill="#E9E5DA"/>
<path d="M67.2168 99.4656L65.5236 92.6931L65.3543 92.0159C65.2273 91.4656 64.6771 91.127 64.1268 91.254L63.9575 91.2963C63.4072 91.4233 63.0686 91.9735 63.1956 92.5238L63.3649 93.201C63.3649 93.2434 65.0157 99.8042 65.0157 99.8042C65.1004 100.143 65.312 100.312 65.693 100.27L66.7512 100.143C67.0475 100.101 67.2168 99.9735 67.2168 99.6772C67.2168 99.5926 67.2168 99.5079 67.2168 99.4656Z" fill="#E9E5DA"/>
<path d="M59.6401 87.7407H59.4708C58.9206 87.7407 58.4126 88.2063 58.4126 88.7989V88.8413V101.37C58.4126 101.624 58.201 101.794 57.9894 101.751L57.6084 101.709C57.4391 101.667 57.2698 101.709 57.1428 101.751C56.9735 101.794 56.9312 101.921 56.9312 102.132V102.175C56.9312 102.344 56.9735 102.471 57.0158 102.598C57.0581 102.683 57.1851 102.767 57.3968 102.767L60.0211 103.106C60.656 103.106 60.7407 102.683 60.7407 102.302V89.3915V88.8413V88.7989C60.656 88.2063 60.1904 87.7407 59.6401 87.7407Z" fill="#E9E5DA"/>
<path d="M55.619 91.5925L55.4497 91.5501C54.8994 91.3808 54.3492 91.7195 54.1798 92.2274L53.9682 92.947L51.8941 99.8041C51.8518 99.8888 51.8518 99.9734 51.8518 100.016C51.8518 100.312 52.0211 100.439 52.3174 100.481L53.3333 100.651C53.6719 100.693 53.9259 100.566 54.0105 100.227L56.2116 92.8623C56.5079 92.3121 56.1693 91.7195 55.619 91.5925Z" fill="#E9E5DA"/>
<path d="M25.7777 89.5186C25.7777 89.1377 25.5238 88.6721 24.9312 88.6297C24.9312 88.6297 14.7724 88.5874 14.5608 88.5874C14.5608 88.5874 13.9259 88.5451 13.6719 88.5874C13.2063 88.6297 12.8677 89.053 12.8677 89.434V102.894C12.8677 103.275 13.164 103.529 13.5026 103.529H14.5608C14.8994 103.529 15.1111 103.36 15.1534 103.021C15.1534 102.979 15.1957 102.979 15.1957 102.979H23.4074C23.4497 102.979 23.4497 103.021 23.4497 103.021C23.4497 103.402 23.746 103.656 24.0846 103.656H25.0582C25.4391 103.656 25.6931 103.36 25.6931 103.021L25.7777 89.5186ZM23.492 101.624C23.492 101.751 23.365 101.878 23.238 101.878H15.4074C15.2804 101.878 15.1534 101.751 15.1534 101.624V97.2647C15.1534 96.7991 15.5343 96.4604 15.9576 96.4604H22.6455C23.1111 96.4604 23.492 96.8414 23.492 97.307V101.624ZM23.492 95.1059C23.492 95.2329 23.365 95.3599 23.238 95.3599H15.4074C15.2804 95.3599 15.1534 95.2329 15.1534 95.1059V90.5345C15.1534 90.0689 15.5343 89.7303 15.9576 89.7303H22.6878C23.1534 89.7303 23.492 90.1112 23.492 90.5345V95.1059Z" fill="#E9E5DA"/>
<path d="M93.2486 89.5185H99.1322C99.5131 89.5185 99.7248 89.3492 99.7248 88.9682C99.7248 88.6296 99.5131 88.418 99.1322 88.418H93.2486C92.8676 88.418 92.656 88.5873 92.656 88.9682C92.656 89.3492 92.8676 89.5185 93.2486 89.5185Z" fill="#E9E5DA"/>
<path d="M106.836 93.6243H102.391C102.349 93.6243 102.264 93.582 102.264 93.4974L102.349 91.9736C102.349 91.6773 102.518 91.4233 102.772 91.2963L106.709 89.1376C106.709 89.1376 106.709 89.1376 106.751 89.1376C106.751 89.1376 106.794 89.1376 106.794 89.0952C107.005 88.9683 107.175 88.7143 107.175 88.545C107.217 88.418 107.175 88.2487 107.132 88.1217C106.963 87.7831 106.497 87.6984 106.116 87.9101C106.074 87.9101 106.074 87.9524 106.032 87.9524C105.566 88.2064 101.799 90.2381 100.529 91C100.106 91.254 100.148 91.7196 100.106 91.8889L99.5132 102.683C99.4708 103.064 99.6825 103.275 100.063 103.275L101.164 103.317C101.545 103.36 101.757 103.148 101.799 102.767L102.222 95.1482C102.264 94.8095 102.561 94.6825 102.73 94.6825C102.73 94.6825 103.069 94.6825 103.45 94.6825C103.788 94.6825 103.958 95.0635 103.958 95.1905C103.958 95.5291 103.958 102.937 103.958 102.937C103.958 103.317 104.254 103.614 104.635 103.614H105.524C105.905 103.614 106.201 103.317 106.201 102.937V95.3175C106.159 94.8519 106.497 94.7249 106.624 94.6825C106.709 94.6402 106.963 94.6402 106.963 94.6402C107.344 94.6402 107.513 94.5132 107.513 94.1323C107.386 93.7937 107.217 93.6243 106.836 93.6243Z" fill="#E9E5DA"/>
<path d="M98.7513 92.0581L93.037 92.1004C92.6561 92.1004 92.4444 92.2697 92.4444 92.6507L91.9365 102.852C91.8942 103.233 92.1058 103.444 92.4868 103.444H93.5873C93.9682 103.444 94.1799 103.275 94.1799 102.894L94.3915 98.365C94.3915 98.3227 94.4339 98.2803 94.5185 98.2803H96.9735C97.0159 98.2803 97.0582 98.3227 97.0582 98.365C97.0582 98.492 97.1005 98.5766 97.1852 98.6613C97.3122 98.7459 97.4391 98.7883 97.6085 98.7883H98.582C98.9629 98.7883 99.2592 98.492 99.2592 98.111V92.6084C99.3439 92.2274 99.1323 92.0581 98.7513 92.0581ZM97.0582 97.1375C97.0582 97.1798 97.0159 97.2645 96.9312 97.2645H94.5185C94.4762 97.2645 94.3915 97.2221 94.3915 97.1375L94.5608 93.9205C94.5608 93.4549 94.9418 93.1163 95.4074 93.1163H96.2116C96.6772 93.1163 97.0582 93.4973 97.0582 93.9629V97.1375Z" fill="#E9E5DA"/>
<path d="M85.2911 96.418H78.3493C78.307 96.418 78.2647 96.418 78.2223 96.3757C78.307 96.037 78.2647 95.7407 78.053 95.5291C77.7567 95.2328 77.2065 95.2328 76.7409 95.5291C76.6562 95.5714 76.6139 95.6138 76.5715 95.6561L76.4869 95.7407L76.4446 95.7831L76.4022 95.8254L72.7197 99.4656C72.5927 99.5926 72.5081 99.7196 72.5081 99.8466C72.5081 100.016 72.635 100.143 72.8467 100.27L73.3546 100.481C73.4393 100.524 73.5663 100.566 73.6932 100.566C73.8626 100.566 74.0319 100.481 74.1588 100.355L76.9102 97.6878C77.1218 97.4762 77.6721 97.5185 77.7567 97.5185H81.7779C82.0319 97.5185 82.1589 97.8572 81.9472 97.9841L80.2964 99.2117C80.2541 99.254 80.1694 99.254 80.1271 99.2117L78.0107 98.0265C77.8837 97.9418 77.7567 97.9418 77.6297 97.9418C77.4604 97.9418 77.3335 97.9841 77.1641 98.1111L76.9948 98.2381C76.8255 98.3651 76.7409 98.4921 76.7409 98.6191C76.7409 98.7884 76.8255 98.9154 77.0372 99L78.7726 99.9736C78.8573 100.016 78.8996 100.185 78.7726 100.228L75.8096 102.429C75.6403 102.556 75.5557 102.683 75.5557 102.81C75.5557 102.979 75.6403 103.106 75.852 103.19L76.1906 103.402C76.3176 103.487 76.4446 103.529 76.5715 103.529C76.6985 103.529 76.8678 103.487 76.9948 103.36L80.2964 100.905C80.3387 100.862 80.4234 100.862 80.4657 100.905L82.2012 101.878C82.3282 101.963 82.4551 101.963 82.5821 101.963C82.7514 101.963 82.8784 101.921 83.0477 101.794L83.2171 101.667C83.3864 101.54 83.471 101.413 83.471 101.286C83.471 101.116 83.3864 100.989 83.1747 100.905L81.8202 100.143C81.7356 100.101 81.6932 99.9312 81.8202 99.8889L85.5874 97.0952C85.7567 96.8836 85.6297 96.418 85.2911 96.418Z" fill="#E9E5DA"/>
<path d="M86.7302 94.9788L81.1006 92.8624C80.9736 92.8201 80.8889 92.7354 80.8889 92.6084V90.6614C80.8889 90.3651 81.1429 90.1111 81.4392 90.1111H86.6455C87.0265 90.1111 87.2381 89.9418 87.2381 89.6032C87.2381 89.2645 87.0265 89.0952 86.6455 89.0952H81.0582C80.9736 89.0952 80.9312 89.0529 80.9312 89.0106C80.9312 88.291 80.4233 87.7407 79.7884 87.7407C79.1958 87.7407 78.6879 88.291 78.6455 88.9682C78.6455 89.0529 78.5609 89.0952 78.4762 89.0952H72.5503C72.1693 89.0952 71.9577 89.2645 71.9577 89.6032C71.9577 89.9418 72.1693 90.1111 72.5503 90.1111H78.0953C78.3916 90.1111 78.6455 90.3651 78.6455 90.619C78.6455 90.619 78.6032 91.8889 78.5609 92.5238C78.5609 92.6931 78.4339 92.8624 78.2223 92.9471L72.254 94.9788C72 95.0635 71.873 95.1905 71.873 95.4021C71.873 95.4868 71.9154 95.6137 72 95.7407V95.7831C72.127 95.9524 72.3387 96.0793 72.5503 96.0793H72.635C72.6773 96.0793 72.7196 96.0793 72.7619 96.037L78.3492 94.1323C78.4339 94.0899 78.5609 94.1746 78.5609 94.2592V95.5714C78.5609 95.9947 78.8995 96.291 79.3228 96.291H80.0847C80.508 96.291 80.8466 95.9524 80.8466 95.5714V94.3016C80.8466 94.1746 80.9736 94.1323 81.0582 94.1746L86.0529 96.037C86.1799 96.0793 86.2646 96.0793 86.3492 96.0793C86.5609 96.0793 86.7302 95.9947 86.8572 95.8254L86.9418 95.7407C87.0265 95.6137 87.0688 95.5291 87.0688 95.4444C87.1111 95.2328 86.9842 95.1058 86.7302 94.9788Z" fill="#E9E5DA"/>
<path d="M84.9102 90.7036C84.6985 90.4073 84.2329 90.365 83.7673 90.5343H83.725C83.598 90.619 83.4287 90.7036 83.344 90.7883H83.3017C83.2594 90.8306 83.1747 90.873 83.1324 90.9576L81.7356 92.2698C81.6086 92.3968 81.5239 92.5238 81.5239 92.6507C81.5239 92.82 81.6509 92.947 81.8625 93.074L82.3282 93.2857C82.4551 93.3703 82.5821 93.3703 82.6668 93.3703C82.8361 93.3703 82.9631 93.2857 83.1324 93.1587L83.3017 92.9894C83.471 92.82 83.725 92.82 83.8943 92.947L85.3758 94.0476C85.5028 94.1322 85.6721 94.2169 85.7991 94.2169C85.926 94.2169 86.053 94.1745 86.18 94.0899L86.5186 93.8782C86.6879 93.7513 86.8149 93.6243 86.8149 93.4973C86.8149 93.3703 86.7303 93.2433 86.561 93.1163L84.8678 91.8465C84.8255 91.8042 84.8255 91.7618 84.8255 91.7618C85.0371 91.3809 85.1218 90.9576 84.9102 90.7036Z" fill="#E9E5DA"/>
<path d="M75.5133 90.4498C75.1324 90.1111 74.4974 90.1958 74.0318 90.7037C73.9895 90.7461 73.9472 90.8307 73.9049 90.873L72.0847 93.3281C72.0001 93.455 71.9578 93.582 71.9578 93.6667C71.9578 93.836 72.0847 94.0053 72.3387 94.09L73.0583 94.3439C73.143 94.3863 73.2276 94.3863 73.3123 94.3863C73.5239 94.3863 73.6932 94.3016 73.8202 94.09L74.4974 93.2011C74.6668 92.9894 74.9631 92.9048 75.1747 93.0318L76.2329 93.455C76.3176 93.4974 76.4445 93.5397 76.5715 93.5397C76.7408 93.5397 76.9101 93.4551 77.0371 93.2857L77.1641 93.1588C77.2911 93.0318 77.3334 92.9048 77.3334 92.8201C77.3334 92.6508 77.2064 92.5238 76.9525 92.3968L75.7673 91.8889C75.6826 91.8466 75.6403 91.7619 75.6826 91.6773C75.8943 91.254 75.8519 90.7461 75.5133 90.4498Z" fill="#E9E5DA"/>
</g>
</svg>
